<?xml version="1.0" encoding="UTF-8"?>
<svg width="749px" height="284px" viewBox="0 0 749 284" version="1.1" xmlns="http://www.w3.org/2000/svg" xmlns:xlink="http://www.w3.org/1999/xlink">
    <!-- Generator: Sketch 3.8.1 (29687) - http://www.bohemiancoding.com/sketch -->
    <title>1datalab_logo_simple</title>
    <desc>Created with Sketch.</desc>
    <defs></defs>
    <g id="Page-1" stroke="none" stroke-width="1" fill="none" fill-rule="evenodd">
        <g id="1datalab_logo_simple" transform="translate(-5.000000, 4.000000)">
            <path d="M221.360551,16.3821429 L221.360551,160.346429" id="Line-Copy-4" stroke="#000000" stroke-width="7" stroke-linecap="round" transform="translate(221.075718, 88.364286) rotate(360.000000) translate(-221.075718, -88.364286) "></path>
            <text id="ONE-DATA-LAB" transform="translate(382.496084, 240.825000) rotate(360.000000) translate(-382.496084, -240.825000) " font-family="VarelaRound-Regular, Varela Round" font-size="99.2857143" font-weight="normal" fill="#000000">
                <tspan x="-5.45696821e-12" y="278.65">ONE DATA LAB</tspan>
                <tspan x="758.542857" y="278.65" font-family="PCapTerminal, PCap Terminal" font-size="109.214286"></tspan>
            </text>
            <text id="CLOUD-" transform="translate(509.326371, 90.971429) rotate(360.000000) translate(-509.326371, -90.971429) " font-family="VarelaRound-Regular, Varela Round" font-size="47.6571429" font-weight="normal" fill="#4A4A4A">
                <tspan x="253.660574" y="47.9714286">CLOUD </tspan>
                <tspan x="253.660574" y="105.971429">MACHINE LEARNING </tspan>
                <tspan x="253.660574" y="163.971429">DATA SCIENCE</tspan>
            </text>
            <path d="M10.0261097,58.0821429 L10.0261097,119.639286" id="Line" stroke="#000000" stroke-width="7" stroke-linecap="round" stroke-linejoin="bevel" transform="translate(10.026110, 88.860714) rotate(360.000000) translate(-10.026110, -88.860714) "></path>
            <path d="M184.480418,58.5785714 L184.480418,118.646429" id="Line" stroke="#000000" stroke-width="7" stroke-linecap="round" transform="translate(184.480418, 88.860714) rotate(360.000000) translate(-184.480418, -88.860714) "></path>
            <path d="M98.0926581,0.992857143 L10.5274151,57.0892857" id="Line" stroke="#000000" stroke-width="7" stroke-linecap="round" transform="translate(54.140992, 29.289286) rotate(360.000000) translate(-54.140992, -29.289286) "></path>
            <path d="M99.7597911,180.203571 L10.5274151,121.625" id="Line" stroke="#000000" stroke-width="7" stroke-linecap="round" transform="translate(55.143603, 150.914286) rotate(360.000000) translate(-55.143603, -150.914286) "></path>
            <path d="M183.979112,57.0892857 L99.2584856,1.56314327e-11" id="Line" stroke="#000000" stroke-width="7" stroke-linecap="round" transform="translate(141.368146, 28.792857) rotate(360.000000) translate(-141.368146, -28.792857) "></path>
            <path d="M183.979112,120.632143 L99.7597911,180.203571" id="Line" stroke="#000000" stroke-width="7" stroke-linecap="round" transform="translate(141.869452, 150.417857) rotate(360.000000) translate(-141.869452, -150.417857) "></path>
            <path d="M164.644671,81.6737825 L164.644671,111.459497" id="Line" stroke="#000000" stroke-width="7" stroke-linecap="round" transform="translate(164.644671, 96.566640) rotate(360.000000) translate(-164.644671, -96.566640) "></path>
            <path d="M98.4723475,109.473782 L98.4723475,156.572443" id="Line-Copy-4" stroke="#000000" stroke-width="7" stroke-linecap="round" transform="translate(98.472347, 133.217735) rotate(360.000000) translate(-98.472347, -133.217735) "></path>
            <path d="M96.9088143,19.642776 L28.2497033,63.6274756" id="Line" stroke="#000000" stroke-width="7" stroke-linecap="round" transform="translate(62.446713, 41.829748) rotate(360.000000) translate(-62.446713, -41.829748) "></path>
            <path d="M53.7965428,98.0784903 L28.5420518,114.257133" id="Line-Copy-3" stroke="#000000" stroke-width="7" stroke-linecap="round" transform="translate(41.169297, 106.167811) rotate(360.000000) translate(-41.169297, -106.167811) "></path>
            <path d="M98.2159981,160.160268 L28.2497033,114.229343" id="Line" stroke="#000000" stroke-width="7" stroke-linecap="round" transform="translate(63.232851, 137.194805) rotate(360.000000) translate(-63.232851, -137.194805) "></path>
            <path d="M164.251602,63.6274756 L97.822929,18.8642857" id="Line" stroke="#000000" stroke-width="7" stroke-linecap="round" transform="translate(130.840731, 41.440503) rotate(360.000000) translate(-130.840731, -41.440503) "></path>
            <path d="M164.251602,113.450852 L98.2159981,160.160268" id="Line" stroke="#000000" stroke-width="7" stroke-linecap="round" transform="translate(131.233800, 136.805560) rotate(360.000000) translate(-131.233800, -136.805560) "></path>
            <path d="M98.2159981,110.517411 L28.2497033,64.5864854" id="Line-Copy-2" stroke="#000000" stroke-width="7" stroke-linecap="round" transform="translate(63.232851, 87.551948) rotate(360.000000) translate(-63.232851, -87.551948) "></path>
            <path d="M164.251602,63.8079951 L98.2159981,110.517411" id="Line-Copy" stroke="#000000" stroke-width="7" stroke-linecap="round" transform="translate(131.233800, 87.162703) rotate(360.000000) translate(-131.233800, -87.162703) "></path>
        </g>
    </g>
</svg>